<svg id="Ebene_1" data-name="Ebene 1" xmlns="http://www.w3.org/2000/svg" viewBox="0 0 204.09 22.68"><defs><style>.cls-1{fill:#00236e;}</style></defs><title>Zeichenfläche 1ldpi</title><path class="cls-1" d="M203.36,19.8a.49.49,0,0,0-.5-.49.5.5,0,0,0-.5.49.51.51,0,0,0,.5.5.5.5,0,0,0,.5-.5m-2.28-1.59c0,1-.51,1.48-1.1,1.48s-1.13-.53-1.13-1.49.55-1.42,1.13-1.42c.74,0,1.1.52,1.1,1.43m.75,0c0-1.43-.77-2-1.79-2a1.92,1.92,0,0,0-1.93,2.09c0,1.4.69,2,1.78,2a2,2,0,0,0,1.94-2.13m-4.72-1.92h-.72v4h.72Zm.12-1.26a.48.48,0,0,0-.48-.47.47.47,0,0,0-.48.47.47.47,0,0,0,.48.47.48.48,0,0,0,.48-.47m-2.92,3.18c0,.7-.37,1.54-1.09,1.54s-.88-.49-.88-1.35c0-1.14.5-1.6,1.26-1.6a2.94,2.94,0,0,1,.71.09Zm.72,2V14.39h-.72v1.84c-.24,0-.46,0-.67,0a2,2,0,0,0-2.06,2.23c0,1.17.49,1.88,1.46,1.88a1.4,1.4,0,0,0,1.34-.89h0a4.4,4.4,0,0,0-.07.8Zm-5.19-1.76a1.19,1.19,0,0,1-1.07,1.27.58.58,0,0,1-.61-.61c0-.4.38-.76,1.68-.76Zm.75,1.76c0-.34,0-.76,0-1.14V17.56c0-.86-.35-1.39-1.46-1.39a3.87,3.87,0,0,0-1.43.29l.13.56a3.19,3.19,0,0,1,1.2-.28c.63,0,.84.3.84.93v.19c-1.52,0-2.39.51-2.39,1.36a1,1,0,0,0,1.11,1.08,1.42,1.42,0,0,0,1.35-.87h0a4.91,4.91,0,0,0,0,.79Zm-3.51-4a1.26,1.26,0,0,0-1.37,1h0a4.71,4.71,0,0,0,.09-.94h-.7v4h.72V18.63c0-1.28.4-1.89,1.24-1.74Zm-4.08,2c0,.7-.36,1.54-1.08,1.54s-.88-.49-.88-1.35c0-1.14.5-1.6,1.26-1.6a2.92,2.92,0,0,1,.7.09Zm.72,2V14.39H183v1.84c-.24,0-.45,0-.67,0a2,2,0,0,0-2.05,2.23c0,1.17.48,1.88,1.46,1.88a1.42,1.42,0,0,0,1.34-.89h0a4.38,4.38,0,0,0-.06.8Zm-4.44,0V17.45c0-.71-.29-1.27-1.2-1.27a1.46,1.46,0,0,0-1.4.91h0a4.75,4.75,0,0,0,.06-.84H176v4h.72v-1.9c0-.88.47-1.55,1.13-1.55s.68.33.68.89v2.56Zm-5.34-1.76a1.19,1.19,0,0,1-1.07,1.27.58.58,0,0,1-.61-.61c0-.4.38-.76,1.68-.76Zm.74,1.76c0-.34,0-.76,0-1.14V17.56c0-.86-.35-1.39-1.46-1.39a4,4,0,0,0-1.44.29l.14.56a3.1,3.1,0,0,1,1.2-.28c.62,0,.84.3.84.93v.19c-1.52,0-2.39.51-2.39,1.36a1,1,0,0,0,1.1,1.08,1.41,1.41,0,0,0,1.35-.87h0a4.91,4.91,0,0,0,0,.79Zm-4.18-5.83h-.72v5.83h.72Zm-2.07,5.83V17.45c0-.71-.29-1.27-1.2-1.27a1.45,1.45,0,0,0-1.39.89h0a3.87,3.87,0,0,0,.07-.79V14.39h-.72v5.83h.72v-1.9c0-.88.47-1.55,1.13-1.55s.68.33.68.89v2.56Zm-4.15-.15-.12-.6a2.14,2.14,0,0,1-.92.2c-.88,0-1.13-.62-1.13-1.4s.39-1.49,1.11-1.49a2.25,2.25,0,0,1,.9.19l.14-.62a2.92,2.92,0,0,0-1-.16c-1.28,0-1.93.9-1.93,2.18,0,1.46.79,1.92,1.74,1.92a3.27,3.27,0,0,0,1.19-.22m-3.66-1c0-1.36-1.86-.85-1.86-1.73,0-.35.25-.57.78-.57a2.89,2.89,0,0,1,.78.12l.05-.59a4,4,0,0,0-.77-.08c-1,0-1.58.51-1.58,1.19,0,1.4,1.85.84,1.85,1.74,0,.37-.35.6-.87.6a2.37,2.37,0,0,1-.88-.16l-.06.64a3.48,3.48,0,0,0,.88.11c1,0,1.68-.55,1.68-1.27m-3.26,1.17-.08-.59a1.9,1.9,0,0,1-.5.06c-.44,0-.57-.17-.57-.83v-2h1.11v-.56h-1.11V14.76l-.72.2v1.29h-.81v.56h.81V19.1c0,.85.25,1.19,1.07,1.19a3.57,3.57,0,0,0,.8-.09m-3.39,0v-4h-.72v1.9c0,.88-.47,1.56-1.13,1.56s-.68-.34-.68-.9V16.25h-.71V19c0,.7.28,1.27,1.19,1.27a1.46,1.46,0,0,0,1.4-.91h0a4.71,4.71,0,0,0-.06.83Zm-5-2.47h-1.87c.08-.65.46-1,1-1s.91.38.89,1m.73.06a1.47,1.47,0,0,0-1.57-1.63,1.84,1.84,0,0,0-1.79,2.08c0,1.4.65,2,1.86,2a3.77,3.77,0,0,0,1.38-.25l-.11-.57a2.93,2.93,0,0,1-1.13.23c-.87,0-1.28-.46-1.26-1.45h2.6a3.87,3.87,0,0,0,0-.45m-4.83-.3a1.94,1.94,0,0,1-2.16,2.12,5.53,5.53,0,0,1-.71,0V15.42l.81,0a1.85,1.85,0,0,1,2.06,2.11m.77,0c0-1.86-1-2.67-2.76-2.67-.59,0-1.2,0-1.61,0v5.39c.39,0,.82,0,1.36,0,1.77,0,3-1,3-2.79m-8.2.7c0,.7-.37,1.54-1.09,1.54s-.88-.49-.88-1.35c0-1.14.51-1.6,1.27-1.6a2.92,2.92,0,0,1,.7.09Zm.72,2V14.39h-.72v1.84c-.24,0-.45,0-.67,0a2,2,0,0,0-2.06,2.23c0,1.17.49,1.88,1.47,1.88a1.4,1.4,0,0,0,1.33-.89h0a4.38,4.38,0,0,0-.06.8Zm-4.45,0V17.45c0-.71-.29-1.27-1.2-1.27a1.46,1.46,0,0,0-1.4.91h0a5.93,5.93,0,0,0,.06-.84h-.69v4h.71v-1.9c0-.88.48-1.55,1.13-1.55s.68.33.68.89v2.56Zm-4.61,0v-4h-.71v1.9c0,.88-.48,1.56-1.13,1.56s-.68-.34-.68-.9V16.25h-.71V19c0,.7.27,1.27,1.19,1.27a1.46,1.46,0,0,0,1.4-.91h0a5.9,5.9,0,0,0-.06.83Zm-6.8-2.71a1.94,1.94,0,0,1-2.16,2.12,5.53,5.53,0,0,1-.71,0V15.42l.81,0a1.85,1.85,0,0,1,2.06,2.11m.77,0c0-1.86-1-2.67-2.76-2.67-.59,0-1.2,0-1.61,0v5.39c.4,0,.82,0,1.36,0,1.77,0,3-1,3-2.79m-6.47-1.17c0,.57-.45,1-1.22,1l-.46,0V15.41l.49,0c.78,0,1.19.26,1.19.91m1.12,3.92-1.47-1.92c-.14-.18-.3-.39-.46-.58a1.55,1.55,0,0,0,1.58-1.52c0-1-.77-1.41-1.83-1.41-.6,0-1,0-1.35,0v5.39h.73V17.81h.1l1.77,2.41ZM112,18.38H110l.73-2c.09-.25.16-.49.22-.72h0a6.7,6.7,0,0,0,.23.73Zm1.46,1.84-2-5.39h-.83l-2,5.39h.75l.45-1.26h2.29l.45,1.26Zm-7.26,0V17.45c0-.71-.29-1.27-1.2-1.27a1.46,1.46,0,0,0-1.4.91h0a4.76,4.76,0,0,0,.07-.84h-.7v4h.72v-1.9c0-.88.47-1.55,1.13-1.55s.68.33.68.89v2.56Zm-5-2c0,1-.51,1.48-1.11,1.48s-1.13-.53-1.13-1.49.56-1.42,1.13-1.42c.74,0,1.11.52,1.11,1.43m.74,0c0-1.43-.77-2-1.78-2a1.93,1.93,0,0,0-1.94,2.09c0,1.4.7,2,1.79,2a2,2,0,0,0,1.93-2.13M98,16.25h-.77l-.86,2.45c-.08.28-.16.53-.22.79h0c-.06-.27-.13-.5-.23-.81L95,16.25h-.8l1.45,4h.82Zm-6.51,4.6c0,.49-.45.86-1.26.86-.62,0-1.07-.28-1.07-.76a1,1,0,0,1,.51-.78h.23l.77,0c.56,0,.82.25.82.64m-.37-3.25a.82.82,0,0,1-.92.87.81.81,0,0,1-.92-.87.86.86,0,0,1,.94-.89.82.82,0,0,1,.9.89m1.09,3.16c0-.72-.48-1.12-1.33-1.15l-.73,0c-.48,0-.68-.09-.68-.32a.38.38,0,0,1,.26-.33,1.42,1.42,0,0,0,.42,0c1.13,0,1.68-.62,1.68-1.44a.91.91,0,0,0-.32-.73h.66v-.57H90.77a2,2,0,0,0-.56-.07,1.51,1.51,0,0,0-1.68,1.49,1.18,1.18,0,0,0,.58,1.09.77.77,0,0,0-.44.67.65.65,0,0,0,.39.6,1.23,1.23,0,0,0-.66,1c0,.77.65,1.19,1.67,1.19,1.25,0,2.1-.67,2.1-1.51m-4.76-.54V17.45c0-.71-.29-1.27-1.2-1.27a1.46,1.46,0,0,0-1.4.91h0a4.75,4.75,0,0,0,.06-.84h-.69v4h.72v-1.9c0-.88.47-1.55,1.13-1.55s.68.33.68.89v2.56Zm-4.61,0v-4h-.72v1.9c0,.88-.47,1.56-1.13,1.56s-.68-.34-.68-.9V16.25h-.71V19c0,.7.28,1.27,1.19,1.27a1.46,1.46,0,0,0,1.4-.91h0a4.73,4.73,0,0,0-.07.83Zm-4.19,0-.07-.59a1.9,1.9,0,0,1-.5.06c-.44,0-.57-.17-.57-.83v-2h1.11v-.56H77.47V14.76l-.72.2v1.29h-.82v.56h.82V19.1c0,.85.25,1.19,1.06,1.19a3.44,3.44,0,0,0,.8-.09m-2.28-5.79a2.81,2.81,0,0,0-.65-.07c-1,0-1.53.52-1.53,1.61v.3h-.82v.56h.82v3.41h.72V16.81H76v-.56h-1.1V16c0-.71.25-1,.82-1a1.64,1.64,0,0,1,.58.09ZM72.6,16.25h-.72v4h.72ZM72.72,15a.48.48,0,0,0-.48-.47.47.47,0,0,0-.48.47.47.47,0,0,0,.48.47.48.48,0,0,0,.48-.47M70.93,20.2l-.07-.59a1.9,1.9,0,0,1-.5.06c-.44,0-.57-.17-.57-.83v-2H70.9v-.56H69.79V14.76l-.72.2v1.29h-.82v.56h.82V19.1c0,.85.25,1.19,1.06,1.19a3.44,3.44,0,0,0,.8-.09m-3.08-1.56c0-1.69-2.48-1.28-2.48-2.44,0-.5.36-.84,1.09-.84a3.61,3.61,0,0,1,.93.14l.09-.64a4.67,4.67,0,0,0-1-.11c-1.21,0-1.89.64-1.89,1.53,0,1.72,2.44,1.24,2.44,2.46,0,.66-.54.92-1.16.92a3,3,0,0,1-1.14-.22l-.09.7a4.28,4.28,0,0,0,1.19.16c1.2,0,2-.69,2-1.66"/><path class="cls-1" d="M158,9.86a.66.66,0,0,0-.66-.65.65.65,0,1,0,.66.65m-1.2-3.41h-1.08l-.63,1.93c-.1.37-.17.67-.24,1h0c-.07-.32-.15-.61-.26-1L154,6.45h-1.1l1.37,4h1.21Zm-4.55,0h-1v4h1Zm.12-1.21a.62.62,0,0,0-.63-.62.62.62,0,1,0,.63.62m-2.26,5.19V7.63c0-.69-.29-1.26-1.18-1.26a1.42,1.42,0,0,0-1.31.74h0a4.43,4.43,0,0,0,.07-.81V4.59h-1v5.84h1V8.51c0-.7.41-1.28.92-1.28s.5.24.5.65v2.55Zm-4.22-.12-.14-.85a2,2,0,0,1-.78.16c-.68,0-.92-.47-.92-1.15s.31-1.23.92-1.23a2.22,2.22,0,0,1,.74.15l.16-.88a3,3,0,0,0-.87-.13,1.94,1.94,0,0,0-2,2.19c0,1.35.68,1.93,1.79,1.93a3.37,3.37,0,0,0,1.12-.19m-3.25-3.94a1.21,1.21,0,0,0-1.27.88h0a5,5,0,0,0,.07-.8h-1v4h1V8.8c0-1.1.36-1.57,1.1-1.43Zm-4.32,2.39a.91.91,0,0,1-.83,1,.45.45,0,0,1-.48-.46c0-.35.28-.6,1.31-.6Zm1.05,1.67c0-.33,0-.71,0-1V7.76c0-.89-.36-1.4-1.6-1.4a4.31,4.31,0,0,0-1.5.27l.17.79a3.42,3.42,0,0,1,1.2-.27c.53,0,.71.21.71.69V8c-1.39,0-2.3.44-2.3,1.38a1.08,1.08,0,0,0,1.14,1.14,1.36,1.36,0,0,0,1.27-.76h0a4.88,4.88,0,0,0,0,.68Zm-3.62,0-1.5-2.16,1.4-1.82h-1.25l-1.16,1.66V4.59h-1v5.84h1v-2l1.23,2Zm-4.65,0V7.63c0-.69-.29-1.26-1.18-1.26a1.46,1.46,0,0,0-1.35.79h0a4.47,4.47,0,0,0,0-.71h-1v4h1V8.51c0-.7.41-1.28.92-1.28s.5.24.5.65v2.55Zm-4.56,0v-4h-1V8.37c0,.7-.4,1.28-.92,1.28s-.5-.25-.5-.66V6.45h-1V9.24c0,.7.29,1.27,1.18,1.27a1.44,1.44,0,0,0,1.35-.8h0a4.51,4.51,0,0,0,0,.72Zm-3.85-5.84a2.73,2.73,0,0,0-.64-.07,1.4,1.4,0,0,0-1.59,1.6v.33h-.69v.79h.69v3.19h1V7.24h.93V6.45h-.93V6.11c0-.52.2-.76.65-.76a1.44,1.44,0,0,1,.49.08Zm-4.56,3.77c0,.68-.32,1.31-.86,1.31s-.68-.39-.68-1.13c0-1,.42-1.35,1-1.35a2.55,2.55,0,0,1,.54.06Zm1,2.07V4.59h-1V6.41l-.51,0a2,2,0,0,0-2.1,2.27c0,1.14.48,1.86,1.45,1.86a1.31,1.31,0,0,0,1.25-.75h0a5.29,5.29,0,0,0,0,.67Zm-4.46,0V7.63c0-.69-.29-1.26-1.18-1.26a1.48,1.48,0,0,0-1.36.79h0a4.53,4.53,0,0,0,.06-.71h-1v4h1V8.51c0-.7.41-1.28.92-1.28s.49.24.49.65v2.55Zm-4.56,0v-4h-1V8.37c0,.7-.4,1.28-.92,1.28s-.5-.25-.5-.66V6.45h-1V9.24c0,.7.29,1.27,1.19,1.27a1.45,1.45,0,0,0,1.35-.8h0a4.51,4.51,0,0,0,0,.72Zm-5.46-3.81c0,.5-.38.82-1,.82h-.38V5.87a2.37,2.37,0,0,1,.41,0c.65,0,1,.26,1,.78m1.45,3.81-1.25-1.82c-.13-.19-.28-.39-.44-.59a1.52,1.52,0,0,0,1.33-1.51c0-1.1-.77-1.52-2-1.52-.62,0-1.13,0-1.55,0v5.4h1V8.19h.09l1.45,2.24ZM99.65,9.19c0-1.31-1.64-1-1.64-1.64,0-.25.19-.41.59-.41a2.78,2.78,0,0,1,.72.1l.05-.8a3.61,3.61,0,0,0-.72-.08c-1.16,0-1.69.57-1.69,1.27,0,1.36,1.61.94,1.61,1.64,0,.27-.25.44-.64.44a2.28,2.28,0,0,1-.84-.16L97,10.4a3.56,3.56,0,0,0,.89.11c1.06,0,1.75-.53,1.75-1.32M95.31,8H93.84a.81.81,0,0,1,.78-.83c.43,0,.71.29.69.83m1,.11a1.52,1.52,0,0,0-1.65-1.69,1.9,1.9,0,0,0-1.89,2.1c0,1.4.7,2,2,2a4.28,4.28,0,0,0,1.44-.26l-.11-.78a3,3,0,0,1-1.15.24c-.77,0-1.1-.37-1.1-1.08h2.46a3.82,3.82,0,0,0,0-.57M92,10.43V7.63c0-.69-.29-1.26-1.19-1.26a1.41,1.41,0,0,0-1.3.74h0a3.71,3.71,0,0,0,.08-.81V4.59h-1v5.84h1V8.51c0-.7.4-1.28.92-1.28s.49.24.49.65v2.55Zm-4.23-.12-.13-.85a2,2,0,0,1-.78.16c-.68,0-.93-.47-.93-1.15s.32-1.23.92-1.23a2.22,2.22,0,0,1,.75.15l.16-.88a3,3,0,0,0-.87-.13,2,2,0,0,0-2,2.19c0,1.35.69,1.93,1.79,1.93a3.29,3.29,0,0,0,1.12-.19M84.24,9.19c0-1.31-1.64-1-1.64-1.64,0-.25.18-.41.58-.41a2.72,2.72,0,0,1,.72.1l0-.8a3.53,3.53,0,0,0-.72-.08c-1.15,0-1.69.57-1.69,1.27,0,1.36,1.62.94,1.62,1.64,0,.27-.26.44-.64.44a2.3,2.3,0,0,1-.85-.16l-.07.85a3.44,3.44,0,0,0,.89.11c1.05,0,1.75-.53,1.75-1.32M81,10.39l-.08-.8a1.55,1.55,0,0,1-.45.05C80.09,9.64,80,9.5,80,9V7.24h1V6.45H80V5l-1,.28V6.45h-.69v.79H79v2c0,.93.27,1.25,1.15,1.25a3.58,3.58,0,0,0,.87-.12m-3.31,0v-4h-1V8.37c0,.7-.4,1.28-.92,1.28s-.5-.25-.5-.66V6.45h-1V9.24c0,.7.28,1.27,1.18,1.27a1.44,1.44,0,0,0,1.35-.8h0a4.51,4.51,0,0,0,0,.72ZM72.33,8H70.86c.06-.52.36-.83.79-.83s.7.29.68.83m1,.11A1.52,1.52,0,0,0,71.7,6.37a1.9,1.9,0,0,0-1.89,2.1,1.78,1.78,0,0,0,2,2,4.28,4.28,0,0,0,1.44-.26l-.11-.78A2.93,2.93,0,0,1,72,9.71c-.77,0-1.1-.37-1.1-1.08h2.46a3.82,3.82,0,0,0,0-.57m-5.22-.35a1.65,1.65,0,0,1-1.76,1.86,4.32,4.32,0,0,1-.56,0V5.89a5.83,5.83,0,0,1,.63,0c1.23,0,1.69.68,1.69,1.84m1.12-.08C69.25,5.74,68.18,5,66.51,5c-.66,0-1.32,0-1.74,0v5.39c.45,0,.94,0,1.5,0a2.68,2.68,0,0,0,3-2.83"/><path class="cls-1" d="M44.91,20.21V9.32c0-4.87-3.11-6.74-6.95-6.74-4.77,0-6.33,2.59-6.33,6.05V20.21H35.5V13.74h5.59v6.47ZM41.09,9.09v1.7H35.5V8.86c0-1.59.26-2.8,2.72-2.8,1.55,0,2.87.71,2.87,3"/><path class="cls-1" d="M29,7.74c0-3.4-2.19-5-6.43-5.08-.61,0-4.35-.06-5.73,0v17.5h4V13.35H21a11.06,11.06,0,0,1,2.1,2.79C23.52,17,25,20.21,25,20.21h4.73l-2.22-4.34a14.29,14.29,0,0,0-2.22-3.14,5,5,0,0,0,3.7-5m-3.93.33a2.64,2.64,0,0,1-2.88,2.54c-.38,0-.83,0-1.36-.07V5.92c.23,0,1.05,0,1.46,0,1.86,0,2.78.82,2.78,2.17"/><path class="cls-1" d="M14.72,11.18c0-6.18-3.35-8.46-8.57-8.55-2.34,0-4.31,0-5.68,0V20.21c1.6.08,3.2.13,5,.13,5.66,0,9.22-3.22,9.22-9.16m-4.17.31c0,3.7-2.06,5.4-4.82,5.4a8.62,8.62,0,0,1-1.36-.1V6.16a13.15,13.15,0,0,1,1.52,0c3.6,0,4.66,2.11,4.66,5.38"/><path class="cls-1" d="M51.92,1.25A4.38,4.38,0,1,0,56.3,5.63a4.38,4.38,0,0,0-4.38-4.38M54,7.71V2.57L48.81,4.43V5.7l1.71-.62V9ZM51.92.5a5.14,5.14,0,1,1-5.14,5.13A5.13,5.13,0,0,1,51.92.5"/></svg>